<svg xmlns:mydata="http://www.w3.org/2000/svg" mydata:contrastcolor="11111f" mydata:template="Contrast"
  mydata:presentation="2.5" mydata:layouttype="undefined" mydata:specialfontid="undefined" mydata:id1="900"
  mydata:id2="769" mydata:companyname="Marcos Gomes" mydata:companytagline="MG" version="1.1"
  xmlns="http://www.w3.org/2000/svg" xmlns:xlink="http://www.w3.org/1999/xlink" style="height: 330px;"
  viewBox="0 0 550 470">
  <defs>
    <linearGradient id="lgrad" x1="0%" y1="50%" x2="100%" y2="50%">

      <stop offset="0%" style="stop-color:rgb(0,192,253);stop-opacity:1.00" />
      <stop offset="100%" style="stop-color:rgb(231,15,170);stop-opacity:1.00" />

    </linearGradient>
  </defs>
  <g fill="url(#lgrad)" fill-rule="none" stroke="none" stroke-width="1" stroke-linecap="butt" stroke-linejoin="miter"
    stroke-miterlimit="10" stroke-dasharray="" stroke-dashoffset="0" font-family="none" font-weight="none"
    font-size="none" text-anchor="none" style="mix-blend-mode: normal">
    <g
      data-paper-data="{&quot;isGlobalGroup&quot;:true,&quot;bounds&quot;:{&quot;x&quot;:71.75300448230848,&quot;y&quot;:115,&quot;width&quot;:406.493991035383,&quot;height&quot;:240}}">
      <g data-paper-data="{&quot;isIcon&quot;:&quot;true&quot;,&quot;iconType&quot;:&quot;icon&quot;,&quot;rawIconId&quot;:&quot;660909&quot;,&quot;selectedEffects&quot;:{&quot;container&quot;:&quot;&quot;,&quot;transformation&quot;:&quot;&quot;,&quot;pattern&quot;:&quot;&quot;},&quot;isDetailed&quot;:false,&quot;fillRule&quot;:&quot;evenodd&quot;,&quot;bounds&quot;:{&quot;x&quot;:194.38784690584745,&quot;y&quot;:115,&quot;width&quot;:161.22430618830506,&quot;height&quot;:138.49071859445277},&quot;iconStyle&quot;:&quot;standalone&quot;,&quot;suitableAsStandaloneIcon&quot;:true}"
        fill-rule="evenodd" id="element-id-84574">
        <path
          d="M215.13675,129.58594c1.59534,1.59534 3.72246,2.50697 6.0395,2.50697c1.37162,0 2.68815,-0.33008 3.87516,-0.94922l46.77614,46.74006l-7.27323,7.27323c-0.4938,0.45581 -0.79767,1.13953 -0.79767,1.82325v5.77361l-29.58976,29.58976c-1.02557,1.02557 -1.02557,2.69689 0,3.72246c0.53178,0.4938 1.17751,0.75969 1.86123,0.75969c0.68372,0 1.32945,-0.26589 1.82325,-0.75969l25.90529,-25.90529v6.18802l-29.58976,29.40326c-0.98759,1.02557 -1.02557,2.62092 0,3.64649c0.53178,0.53178 1.17751,0.79767 1.86123,0.79767c0.68372,0 1.32945,-0.26589 1.82325,-0.7217l25.90529,-25.77462v6.09002l-29.58976,29.25664c-0.98759,0.98759 -1.02557,2.6589 0,3.68448c0.53178,0.4938 1.17751,0.75969 1.86123,0.75969c0.68372,0 1.32945,-0.26589 1.82325,-0.75969l30.01177,-29.63572c0.68486,-0.47366 1.13535,-1.2645 1.13535,-2.15712v-32.81843l8.22891,-8.23765c0.04406,-0.03798 0.0866,-0.07787 0.12763,-0.11889c0.03381,-0.03495 0.06609,-0.07027 0.09762,-0.10636l26.49898,-26.5267c1.01038,0.40301 2.10205,0.61383 3.22107,0.61383c2.27906,0 4.40618,-0.91163 6.0395,-2.46898c1.63332,-1.63332 2.46898,-3.72246 2.46898,-6.0395c0,-2.31704 -0.87364,-4.44416 -2.46898,-6.07749c-1.63332,-1.63332 -3.76044,-2.46898 -6.0395,-2.46898c-2.27906,0 -4.44416,0.87364 -6.0395,2.46898c-2.84617,2.87883 -3.2412,7.27931 -1.18473,10.60446l-15.32172,15.32211c-0.03,-0.03304 -0.06077,-0.06534 -0.09268,-0.09724l-34.08748,-34.08748c0.60965,-1.19081 0.92719,-2.5233 0.92719,-3.89681c0,-2.31704 -0.91163,-4.44416 -2.50697,-6.07749c-1.59534,-1.63332 -3.76044,-2.50697 -6.0395,-2.50697c-2.24107,0 -4.40618,0.91163 -6.0395,2.50697c-3.30463,3.34262 -3.30463,8.77437 0,12.11699c1.63332,1.55735 3.76044,2.46898 6.0395,2.46898c1.37162,0 2.70182,-0.33008 3.89149,-0.93251l34.13078,34.13078c0.02735,0.02355 0.05507,0.04634 0.08318,0.06875l-5.41997,5.41997l-46.74955,-46.74955c0.62256,-1.18777 0.95949,-2.51707 0.95949,-3.90251c0,-2.27906 -0.91163,-4.44416 -2.50697,-6.0395c-1.63332,-1.63332 -3.76044,-2.50697 -6.0395,-2.50697c-2.31704,0 -4.44416,0.87364 -6.0395,2.50697c-1.63332,1.59534 -2.50697,3.72246 -2.50697,6.0395c0,2.27906 0.87364,4.40618 2.50697,6.0395zM218.82123,121.15343c0.60775,-0.56977 1.48139,-0.91163 2.35503,-0.91163c0.87364,0 1.70929,0.34186 2.31704,0.91163c0.64574,0.64574 0.98759,1.4434 0.98759,2.39301c0,0.87364 -0.34186,1.70929 -0.94961,2.31704c-0.64574,0.68372 -1.48139,1.02557 -2.35503,1.02557c-0.87364,0 -1.74728,-0.34186 -2.39301,-1.02557c-0.60775,-0.60775 -0.94961,-1.48139 -0.94961,-2.31704c0,-0.94961 0.34186,-1.74728 0.98759,-2.39301zM240.47227,124.57202c0.64574,-0.56977 1.48139,-0.91163 2.35503,-0.91163c0.91163,0 1.74728,0.34186 2.35503,0.91163c0.60775,0.64574 0.94961,1.51937 0.94961,2.39301c0,0.87364 -0.30388,1.70929 -0.94961,2.35503c-0.64574,0.64574 -1.48139,0.98759 -2.35503,0.98759c-0.87364,0 -1.70929,-0.34186 -2.35503,-0.98759c-1.29146,-1.32945 -1.29146,-3.41858 0,-4.74804zM196.86631,147.85639c1.59534,1.63332 3.76044,2.46898 6.0395,2.46898c1.38434,0 2.71261,-0.30843 3.90821,-0.91656l25.75753,25.7203v34.10989c0,1.4434 1.13953,2.58293 2.58293,2.58293c1.4434,0 2.62092,-1.17751 2.62092,-2.62092v-35.17345c0,-0.68372 -0.26589,-1.36743 -0.75969,-1.82325l-26.51383,-26.47657c1.66265,-3.22411 1.14378,-7.28805 -1.55656,-9.98835c-1.63332,-1.63332 -3.76044,-2.46898 -6.0395,-2.46898c-2.27906,0 -4.44416,0.87364 -6.0395,2.46898c-3.30463,3.34262 -3.30463,8.81235 0,12.11699zM324.94098,149.4221c1.18929,0.59939 2.50848,0.90327 3.88276,0.90327c2.31704,0 4.44416,-0.83566 6.07749,-2.46898c3.34262,-3.34262 3.34262,-8.77437 0,-12.11699c-1.59534,-1.63332 -3.72246,-2.46898 -6.0395,-2.46898c-2.27906,0 -4.44416,0.87364 -6.0395,2.46898c-1.59534,1.63332 -2.50697,3.76044 -2.50697,6.07749c0,1.36098 0.33616,2.70752 0.94885,3.91276l-46.68194,46.64434c-0.4938,0.4938 -0.75969,1.17751 -0.75969,1.86123v34.18586c0,0.75969 0.26589,1.36743 0.75969,1.89921l21.11926,21.0433c0.4938,0.53178 1.13953,0.75969 1.82325,0.75969c0.64574,0 1.32945,-0.22791 1.86123,-0.75969c0.98759,-1.02557 0.98759,-2.6589 0,-3.68448l-20.35958,-20.28361v-32.05874zM218.51735,151.27497c1.63332,1.59534 3.76044,2.46898 6.0395,2.46898c1.39934,0 2.72917,-0.33236 3.92301,-0.93897l20.84274,20.84274v24.61382c0,1.40542 1.17751,2.54495 2.62092,2.54495c1.40542,0 2.58293,-1.13953 2.62092,-2.58293v-25.71537c0,-0.68372 -0.30388,-1.29146 -0.79767,-1.82325l-21.57812,-21.54089c0.61838,-1.18549 0.95264,-2.50506 0.95264,-3.90859c0,-2.31704 -0.91163,-4.44416 -2.50697,-6.07749c-1.59534,-1.63332 -3.72246,-2.46898 -6.0395,-2.46898c-2.27906,0 -4.44416,0.87364 -6.0395,2.46898c-1.63332,1.63332 -2.50697,3.79843 -2.50697,6.07749c0,2.27906 0.87364,4.40618 2.46898,6.0395zM200.55079,139.38589c0.64574,-0.56977 1.48139,-0.91163 2.35503,-0.91163c0.87364,0 1.70929,0.34186 2.35503,0.91163c1.29146,1.32945 1.29146,3.41858 0,4.74804c-0.64574,0.64574 -1.48139,0.98759 -2.35503,0.98759c-0.87364,0 -1.70929,-0.34186 -2.35503,-0.98759c-1.29146,-1.32945 -1.29146,-3.41858 0,-4.74804zM326.46871,139.38589c0.64574,-0.56977 1.48139,-0.91163 2.35503,-0.91163c0.91163,0 1.74728,0.34186 2.35503,0.91163c1.29146,1.32945 1.29146,3.41858 0,4.74804c-0.64574,0.64574 -1.48139,0.98759 -2.35503,0.98759c-0.83566,0 -1.67131,-0.34186 -2.31704,-0.94961c-0.64574,-0.64574 -0.98759,-1.51937 -0.98759,-2.35503c0,-0.91163 0.34186,-1.70929 0.94961,-2.431zM222.20183,142.88045c0.64574,-0.64574 1.48139,-0.98759 2.35503,-0.98759c0.91163,0 1.74728,0.34186 2.35503,0.98759c0.64574,0.64574 0.98759,1.4434 0.98759,2.35503c0,0.87364 -0.34186,1.70929 -0.98759,2.31704c-0.60775,0.64574 -1.48139,0.98759 -2.35503,0.98759c-0.87364,0 -1.70929,-0.34186 -2.35503,-0.94961c-0.60775,-0.64574 -0.94961,-1.48139 -0.94961,-2.35503c0,-0.91163 0.34186,-1.70929 0.94961,-2.35503zM304.81766,142.88045c0.64574,-0.64574 1.48139,-0.98759 2.35503,-0.98759c0.87364,0 1.70929,0.34186 2.35503,0.94961c0.60775,0.64574 0.94961,1.4434 0.94961,2.35503c0,0.91163 -0.34186,1.70929 -0.94961,2.35503c-0.64574,0.64574 -1.48139,0.98759 -2.35503,0.98759c-0.87364,0 -1.70929,-0.34186 -2.35503,-0.94961c-1.29146,-1.32945 -1.29146,-3.41858 0,-4.71006zM347.09418,168.55782c-1.37427,0 -2.69347,-0.30388 -3.88276,-0.90327l-44.88908,44.88908c3.19068,3.19068 10.21778,10.17979 15.19371,15.11775c1.02557,0.98759 1.02557,2.6589 0,3.68448c-0.53178,0.4938 -1.17751,0.75969 -1.86123,0.75969c-0.68372,0 -1.32945,-0.26589 -1.82325,-0.75969c-4.97594,-4.93795 -16.56115,-16.40921 -17.1689,-17.20688c-0.87364,-1.02557 -0.79767,-2.54495 0.18992,-3.49455l46.65383,-46.65383c-1.67283,-3.21613 -1.15662,-7.31388 1.54824,-10.01874c1.59534,-1.59534 3.76044,-2.46898 6.0395,-2.46898c2.27906,0 4.44416,0.83566 6.0395,2.46898c3.30463,3.30463 3.30463,8.77437 0,12.11699c-1.59534,1.63332 -3.76044,2.46898 -6.0395,2.46898zM325.44314,171.97641c-1.37465,0 -2.69385,-0.30388 -3.88276,-0.90365l-33.56976,33.53215v13.97822l19.90377,19.90377c1.02557,1.02557 1.02557,2.73487 0,3.76044c-0.4938,0.45581 -1.13953,0.7217 -1.82325,0.7217c-0.68372,0 -1.32945,-0.26589 -1.86123,-0.7217l-20.66345,-20.73942c-0.53178,-0.4938 -0.79767,-1.17751 -0.79767,-1.86123v-16.10534c0,-0.68372 0.26589,-1.36743 0.79767,-1.82325l34.31956,-34.31956c-1.6451,-3.20549 -1.13269,-7.27627 1.5376,-10.0081c1.59534,-1.59534 3.76044,-2.46898 6.0395,-2.46898c2.27906,0 4.44416,0.87364 6.07749,2.46898c3.30463,3.3806 3.30463,8.77437 0,12.11699c-1.67131,1.63332 -3.79843,2.46898 -6.07749,2.46898zM344.73916,157.69432c0.64574,-0.64574 1.48139,-0.98759 2.35503,-0.98759c0.91163,0 1.74728,0.37984 2.35503,0.98759c1.29146,1.32945 1.29146,3.41858 0,4.74804c-0.60775,0.56977 -1.4434,0.94961 -2.35503,0.94961c-0.91163,0 -1.74728,-0.34186 -2.35503,-0.94961c-1.32945,-1.32945 -1.32945,-3.41858 0,-4.74804zM325.44314,160.12532c-0.87364,0 -1.70929,0.34186 -2.35503,0.98759c-1.29146,1.32945 -1.29146,3.41858 0,4.74804c0.60775,0.60775 1.48139,0.94961 2.35503,0.94961c0.87364,0 1.70929,-0.34186 2.35503,-0.98759c1.29146,-1.29146 1.29146,-3.3806 0,-4.71006c-0.64574,-0.60775 -1.48139,-0.98759 -2.35503,-0.98759z"
          data-paper-data="{&quot;isPathIcon&quot;:true}" id="element-id-10672"></path>
      </g>
    </g>
  </g>
</svg>